<?xml version="1.0" encoding="utf-8"?>
<svg version="1.1" xmlns:xlink="http://www.w3.org/1999/xlink" width="19px" height="12px" xmlns="http://www.w3.org/2000/svg">
  <defs>
    <pattern id="BGPattern" patternUnits="userSpaceOnUse" alignment="0 0" imageRepeat="None" />
    <mask fill="white" id="Clip226">
      <path d="M 19 2.660869565217392  C 19 2.8657004830917874  18.92535153019024 3.041545893719806  18.77605459057072 3.188405797101449  L 10.030397022332505 11.779710144927536  C 9.881100082712987 11.926570048309179  9.704301075268816 12  9.5 12  C 9.295698924731184 12  9.118899917287015 11.926570048309179  8.969602977667494 11.779710144927536  L 0.2239454094292804 3.188405797101449  C 0.07464846980976024 3.041545893719806  0 2.8657004830917874  0 2.660869565217392  C 0 2.456038647342994  0.07464846980976024 2.2801932367149753  0.2239454094292804 2.1333333333333337  L 2.180521091811414 0.22028985507246368  C 2.3298180314309347 0.07342995169082078  2.506617038875104 0  2.7109181141439205 0  C 2.9152191894127384 0  3.092018196856907 0.07342995169082078  3.2413151364764268 0.22028985507246368  L 9.5 6.376811594202898  L 15.758684863523573 0.22028985507246368  C 15.907981803143095 0.07342995169082078  16.08478081058726 0  16.28908188585608 0  C 16.4933829611249 0  16.670181968569068 0.07342995169082078  16.819478908188586 0.22028985507246368  L 18.77605459057072 2.1333333333333337  C 18.92535153019024 2.2801932367149753  19 2.456038647342994  19 2.660869565217392  Z " fill-rule="evenodd" />
    </mask>
  </defs>
  <g transform="matrix(1 0 0 1 -200 -105 )">
    <path d="M 19 2.660869565217392  C 19 2.8657004830917874  18.92535153019024 3.041545893719806  18.77605459057072 3.188405797101449  L 10.030397022332505 11.779710144927536  C 9.881100082712987 11.926570048309179  9.704301075268816 12  9.5 12  C 9.295698924731184 12  9.118899917287015 11.926570048309179  8.969602977667494 11.779710144927536  L 0.2239454094292804 3.188405797101449  C 0.07464846980976024 3.041545893719806  0 2.8657004830917874  0 2.660869565217392  C 0 2.456038647342994  0.07464846980976024 2.2801932367149753  0.2239454094292804 2.1333333333333337  L 2.180521091811414 0.22028985507246368  C 2.3298180314309347 0.07342995169082078  2.506617038875104 0  2.7109181141439205 0  C 2.9152191894127384 0  3.092018196856907 0.07342995169082078  3.2413151364764268 0.22028985507246368  L 9.5 6.376811594202898  L 15.758684863523573 0.22028985507246368  C 15.907981803143095 0.07342995169082078  16.08478081058726 0  16.28908188585608 0  C 16.4933829611249 0  16.670181968569068 0.07342995169082078  16.819478908188586 0.22028985507246368  L 18.77605459057072 2.1333333333333337  C 18.92535153019024 2.2801932367149753  19 2.456038647342994  19 2.660869565217392  Z " fill-rule="nonzero" fill="rgba(0, 0, 0, 1)" stroke="none" transform="matrix(1 0 0 1 200 105 )" class="fill" />
    <path d="M 19 2.660869565217392  C 19 2.8657004830917874  18.92535153019024 3.041545893719806  18.77605459057072 3.188405797101449  L 10.030397022332505 11.779710144927536  C 9.881100082712987 11.926570048309179  9.704301075268816 12  9.5 12  C 9.295698924731184 12  9.118899917287015 11.926570048309179  8.969602977667494 11.779710144927536  L 0.2239454094292804 3.188405797101449  C 0.07464846980976024 3.041545893719806  0 2.8657004830917874  0 2.660869565217392  C 0 2.456038647342994  0.07464846980976024 2.2801932367149753  0.2239454094292804 2.1333333333333337  L 2.180521091811414 0.22028985507246368  C 2.3298180314309347 0.07342995169082078  2.506617038875104 0  2.7109181141439205 0  C 2.9152191894127384 0  3.092018196856907 0.07342995169082078  3.2413151364764268 0.22028985507246368  L 9.5 6.376811594202898  L 15.758684863523573 0.22028985507246368  C 15.907981803143095 0.07342995169082078  16.08478081058726 0  16.28908188585608 0  C 16.4933829611249 0  16.670181968569068 0.07342995169082078  16.819478908188586 0.22028985507246368  L 18.77605459057072 2.1333333333333337  C 18.92535153019024 2.2801932367149753  19 2.456038647342994  19 2.660869565217392  Z " stroke-width="0" stroke-dasharray="0" stroke="rgba(255, 255, 255, 0)" fill="none" transform="matrix(1 0 0 1 200 105 )" class="stroke" mask="url(#Clip226)" />
  </g>
</svg>