<?xml version="1.0" encoding="utf-8"?>
<svg version="1.1" xmlns:xlink="http://www.w3.org/1999/xlink" width="137px" height="137px" xmlns="http://www.w3.org/2000/svg">
  <defs>
    <pattern id="BGPattern" patternUnits="userSpaceOnUse" alignment="0 0" imageRepeat="None" />
    <mask fill="white" id="Clip218">
      <path d="M 79.11393229166667 113.36393229166667  C 79.64908854166667 112.82877604166667  79.91666666666667 112.14496527777777  80 111.3125  L 80 94.1875  C 79.91666666666667 93.3550347222222  79.64908854166667 92.67122395833334  79.11393229166667 92.13606770833334  C 78.57877604166667 91.60091145833334  77.89496527777779 91.33333333333334  77.0625 91  L 59.9375 91  C 59.10503472222223 91.33333333333334  58.421223958333336 91.60091145833334  57.886067708333336 92.13606770833334  C 57.350911458333336 92.67122395833334  57.083333333333336 93.3550347222222  57 94.1875  L 57 111.3125  C 57.083333333333336 112.14496527777777  57.350911458333336 112.82877604166667  57.886067708333336 113.36393229166667  C 58.421223958333336 113.89908854166667  59.10503472222223 114.16666666666667  59.9375 114  L 77.0625 114  C 77.89496527777779 114.16666666666667  78.57877604166667 113.89908854166667  79.11393229166667 113.36393229166667  Z M 101.63509114583333 58.599609375  C 102.37836371527779 56.39952256944444  102.75 53.99131944444444  102.75 51.375  C 102.75 46.1423611111111  101.09993489583333 41.29622395833333  97.7998046875 36.83658854166667  C 94.49967447916667 32.376953125  90.38194444444446 28.92816840277777  85.44661458333333 26.490234375  C 80.51128472222223 24.052300347222214  75.45703125 22.83333333333333  70.28385416666667 22.83333333333333  C 55.834635416666664 22.83333333333333  44.804470486111114 29.166015625  37.193359375 41.83138020833333  C 36.30143229166667 43.25846354166667  36.53927951388889 44.50716145833333  37.906901041666664 45.57747395833333  L 49.680338541666664 54.49674479166667  C 50.096571180555564 54.853515625  50.661458333333336 55.03190104166667  51.375 55.03190104166667  C 52.32638888888889 55.03190104166667  53.069661458333336 54.67513020833333  53.604817708333336 53.96158854166667  C 56.75629340277778 49.918185763888886  59.313151041666664 47.18294270833333  61.275390625 45.755859375  C 63.29709201388889 44.32877604166667  65.85394965277779 43.615234375  68.94596354166667 43.615234375  C 71.80013020833333 43.615234375  74.34212239583333 44.388237847222214  76.57194010416667 45.93424479166667  C 78.8017578125 47.4802517361111  79.91666666666667 49.234374999999986  79.91666666666667 51.19661458333333  C 79.91666666666667 53.45616319444444  79.32204861111111 55.269748263888886  78.1328125 56.63736979166667  C 76.9435763888889 58.00499131944444  74.921875 59.34288194444444  72.06770833333333 60.65104166666667  C 68.32161458333334 62.315972222222214  64.8876953125 64.8876953125  61.765950520833336 68.3662109375  C 58.644205729166664 71.8447265625  57.083333333333336 75.57595486111111  57.083333333333336 79.55989583333334  L 57.083333333333336 82.77083333333334  C 57.083333333333336 83.60329861111111  57.350911458333336 84.287109375  57.886067708333336 84.822265625  C 58.421223958333336 85.357421875  59.10503472222223 85.625  59.9375 85  L 77.0625 85  C 77.89496527777779 85.625  78.57877604166667 85.357421875  79.11393229166667 84.822265625  C 79.64908854166667 84.287109375  79.91666666666667 83.60329861111111  79.91666666666667 82.77083333333334  C 79.91666666666667 81.64105902777777  80.5558810763889 80.16937934027777  81.83430989583333 78.35579427083334  C 83.11273871527779 76.54220920138889  84.73307291666667 75.07052951388889  86.6953125 73.94075520833334  C 88.59809027777779 72.87044270833334  90.0549045138889 72.02311197916666  91.06575520833333 71.39876302083334  C 92.07660590277779 70.7744140625  93.44422743055556 69.73383246527777  95.16861979166667 68.27701822916667  C 96.89301215277779 66.82020399305556  98.2160373263889 65.39312065972221  99.1376953125 63.99576822916667  C 100.05935329861113 62.5984157986111  100.8918185763889 60.79969618055556  101.63509114583333 58.599609375  Z M 127.81315104166667 34.1162109375  C 133.93771701388886 44.61121961805554  137 56.07248263888887  137 68.5  C 137 80.92751736111111  133.93771701388886 92.38878038194443  127.81315104166667 102.8837890625  C 121.68858506944446 113.37879774305556  113.37879774305556 121.68858506944444  102.8837890625 127.81315104166667  C 92.38878038194446 133.9377170138889  80.92751736111111 137  68.5 137  C 56.07248263888889 137  44.61121961805556 133.9377170138889  34.1162109375 127.81315104166667  C 23.621202256944446 121.68858506944444  15.311414930555557 113.37879774305556  9.186848958333334 102.8837890625  C 3.0622829861111107 92.38878038194443  0 80.92751736111111  0 68.5  C 0 56.07248263888887  3.0622829861111107 44.61121961805554  9.186848958333334 34.1162109375  C 15.311414930555557 23.621202256944443  23.621202256944446 15.311414930555543  34.1162109375 9.186848958333329  C 44.61121961805556 3.062282986111099  56.07248263888889 0  68.5 0  C 80.92751736111111 0  92.38878038194446 3.062282986111099  102.8837890625 9.186848958333329  C 113.37879774305556 15.311414930555543  121.68858506944446 23.621202256944443  127.81315104166667 34.1162109375  Z " fill-rule="evenodd" />
    </mask>
  </defs>
  <g transform="matrix(1 0 0 1 -1013 -584 )">
    <path d="M 79.11393229166667 113.36393229166667  C 79.64908854166667 112.82877604166667  79.91666666666667 112.14496527777777  80 111.3125  L 80 94.1875  C 79.91666666666667 93.3550347222222  79.64908854166667 92.67122395833334  79.11393229166667 92.13606770833334  C 78.57877604166667 91.60091145833334  77.89496527777779 91.33333333333334  77.0625 91  L 59.9375 91  C 59.10503472222223 91.33333333333334  58.421223958333336 91.60091145833334  57.886067708333336 92.13606770833334  C 57.350911458333336 92.67122395833334  57.083333333333336 93.3550347222222  57 94.1875  L 57 111.3125  C 57.083333333333336 112.14496527777777  57.350911458333336 112.82877604166667  57.886067708333336 113.36393229166667  C 58.421223958333336 113.89908854166667  59.10503472222223 114.16666666666667  59.9375 114  L 77.0625 114  C 77.89496527777779 114.16666666666667  78.57877604166667 113.89908854166667  79.11393229166667 113.36393229166667  Z M 101.63509114583333 58.599609375  C 102.37836371527779 56.39952256944444  102.75 53.99131944444444  102.75 51.375  C 102.75 46.1423611111111  101.09993489583333 41.29622395833333  97.7998046875 36.83658854166667  C 94.49967447916667 32.376953125  90.38194444444446 28.92816840277777  85.44661458333333 26.490234375  C 80.51128472222223 24.052300347222214  75.45703125 22.83333333333333  70.28385416666667 22.83333333333333  C 55.834635416666664 22.83333333333333  44.804470486111114 29.166015625  37.193359375 41.83138020833333  C 36.30143229166667 43.25846354166667  36.53927951388889 44.50716145833333  37.906901041666664 45.57747395833333  L 49.680338541666664 54.49674479166667  C 50.096571180555564 54.853515625  50.661458333333336 55.03190104166667  51.375 55.03190104166667  C 52.32638888888889 55.03190104166667  53.069661458333336 54.67513020833333  53.604817708333336 53.96158854166667  C 56.75629340277778 49.918185763888886  59.313151041666664 47.18294270833333  61.275390625 45.755859375  C 63.29709201388889 44.32877604166667  65.85394965277779 43.615234375  68.94596354166667 43.615234375  C 71.80013020833333 43.615234375  74.34212239583333 44.388237847222214  76.57194010416667 45.93424479166667  C 78.8017578125 47.4802517361111  79.91666666666667 49.234374999999986  79.91666666666667 51.19661458333333  C 79.91666666666667 53.45616319444444  79.32204861111111 55.269748263888886  78.1328125 56.63736979166667  C 76.9435763888889 58.00499131944444  74.921875 59.34288194444444  72.06770833333333 60.65104166666667  C 68.32161458333334 62.315972222222214  64.8876953125 64.8876953125  61.765950520833336 68.3662109375  C 58.644205729166664 71.8447265625  57.083333333333336 75.57595486111111  57.083333333333336 79.55989583333334  L 57.083333333333336 82.77083333333334  C 57.083333333333336 83.60329861111111  57.350911458333336 84.287109375  57.886067708333336 84.822265625  C 58.421223958333336 85.357421875  59.10503472222223 85.625  59.9375 85  L 77.0625 85  C 77.89496527777779 85.625  78.57877604166667 85.357421875  79.11393229166667 84.822265625  C 79.64908854166667 84.287109375  79.91666666666667 83.60329861111111  79.91666666666667 82.77083333333334  C 79.91666666666667 81.64105902777777  80.5558810763889 80.16937934027777  81.83430989583333 78.35579427083334  C 83.11273871527779 76.54220920138889  84.73307291666667 75.07052951388889  86.6953125 73.94075520833334  C 88.59809027777779 72.87044270833334  90.0549045138889 72.02311197916666  91.06575520833333 71.39876302083334  C 92.07660590277779 70.7744140625  93.44422743055556 69.73383246527777  95.16861979166667 68.27701822916667  C 96.89301215277779 66.82020399305556  98.2160373263889 65.39312065972221  99.1376953125 63.99576822916667  C 100.05935329861113 62.5984157986111  100.8918185763889 60.79969618055556  101.63509114583333 58.599609375  Z M 127.81315104166667 34.1162109375  C 133.93771701388886 44.61121961805554  137 56.07248263888887  137 68.5  C 137 80.92751736111111  133.93771701388886 92.38878038194443  127.81315104166667 102.8837890625  C 121.68858506944446 113.37879774305556  113.37879774305556 121.68858506944444  102.8837890625 127.81315104166667  C 92.38878038194446 133.9377170138889  80.92751736111111 137  68.5 137  C 56.07248263888889 137  44.61121961805556 133.9377170138889  34.1162109375 127.81315104166667  C 23.621202256944446 121.68858506944444  15.311414930555557 113.37879774305556  9.186848958333334 102.8837890625  C 3.0622829861111107 92.38878038194443  0 80.92751736111111  0 68.5  C 0 56.07248263888887  3.0622829861111107 44.61121961805554  9.186848958333334 34.1162109375  C 15.311414930555557 23.621202256944443  23.621202256944446 15.311414930555543  34.1162109375 9.186848958333329  C 44.61121961805556 3.062282986111099  56.07248263888889 0  68.5 0  C 80.92751736111111 0  92.38878038194446 3.062282986111099  102.8837890625 9.186848958333329  C 113.37879774305556 15.311414930555543  121.68858506944446 23.621202256944443  127.81315104166667 34.1162109375  Z " fill-rule="nonzero" fill="rgba(0, 0, 0, 1)" stroke="none" transform="matrix(1 0 0 1 1013 584 )" class="fill" />
    <path d="M 79.11393229166667 113.36393229166667  C 79.64908854166667 112.82877604166667  79.91666666666667 112.14496527777777  80 111.3125  L 80 94.1875  C 79.91666666666667 93.3550347222222  79.64908854166667 92.67122395833334  79.11393229166667 92.13606770833334  C 78.57877604166667 91.60091145833334  77.89496527777779 91.33333333333334  77.0625 91  L 59.9375 91  C 59.10503472222223 91.33333333333334  58.421223958333336 91.60091145833334  57.886067708333336 92.13606770833334  C 57.350911458333336 92.67122395833334  57.083333333333336 93.3550347222222  57 94.1875  L 57 111.3125  C 57.083333333333336 112.14496527777777  57.350911458333336 112.82877604166667  57.886067708333336 113.36393229166667  C 58.421223958333336 113.89908854166667  59.10503472222223 114.16666666666667  59.9375 114  L 77.0625 114  C 77.89496527777779 114.16666666666667  78.57877604166667 113.89908854166667  79.11393229166667 113.36393229166667  Z " stroke-width="0" stroke-dasharray="0" stroke="rgba(255, 255, 255, 0)" fill="none" transform="matrix(1 0 0 1 1013 584 )" class="stroke" mask="url(#Clip218)" />
    <path d="M 101.63509114583333 58.599609375  C 102.37836371527779 56.39952256944444  102.75 53.99131944444444  102.75 51.375  C 102.75 46.1423611111111  101.09993489583333 41.29622395833333  97.7998046875 36.83658854166667  C 94.49967447916667 32.376953125  90.38194444444446 28.92816840277777  85.44661458333333 26.490234375  C 80.51128472222223 24.052300347222214  75.45703125 22.83333333333333  70.28385416666667 22.83333333333333  C 55.834635416666664 22.83333333333333  44.804470486111114 29.166015625  37.193359375 41.83138020833333  C 36.30143229166667 43.25846354166667  36.53927951388889 44.50716145833333  37.906901041666664 45.57747395833333  L 49.680338541666664 54.49674479166667  C 50.096571180555564 54.853515625  50.661458333333336 55.03190104166667  51.375 55.03190104166667  C 52.32638888888889 55.03190104166667  53.069661458333336 54.67513020833333  53.604817708333336 53.96158854166667  C 56.75629340277778 49.918185763888886  59.313151041666664 47.18294270833333  61.275390625 45.755859375  C 63.29709201388889 44.32877604166667  65.85394965277779 43.615234375  68.94596354166667 43.615234375  C 71.80013020833333 43.615234375  74.34212239583333 44.388237847222214  76.57194010416667 45.93424479166667  C 78.8017578125 47.4802517361111  79.91666666666667 49.234374999999986  79.91666666666667 51.19661458333333  C 79.91666666666667 53.45616319444444  79.32204861111111 55.269748263888886  78.1328125 56.63736979166667  C 76.9435763888889 58.00499131944444  74.921875 59.34288194444444  72.06770833333333 60.65104166666667  C 68.32161458333334 62.315972222222214  64.8876953125 64.8876953125  61.765950520833336 68.3662109375  C 58.644205729166664 71.8447265625  57.083333333333336 75.57595486111111  57.083333333333336 79.55989583333334  L 57.083333333333336 82.77083333333334  C 57.083333333333336 83.60329861111111  57.350911458333336 84.287109375  57.886067708333336 84.822265625  C 58.421223958333336 85.357421875  59.10503472222223 85.625  59.9375 85  L 77.0625 85  C 77.89496527777779 85.625  78.57877604166667 85.357421875  79.11393229166667 84.822265625  C 79.64908854166667 84.287109375  79.91666666666667 83.60329861111111  79.91666666666667 82.77083333333334  C 79.91666666666667 81.64105902777777  80.5558810763889 80.16937934027777  81.83430989583333 78.35579427083334  C 83.11273871527779 76.54220920138889  84.73307291666667 75.07052951388889  86.6953125 73.94075520833334  C 88.59809027777779 72.87044270833334  90.0549045138889 72.02311197916666  91.06575520833333 71.39876302083334  C 92.07660590277779 70.7744140625  93.44422743055556 69.73383246527777  95.16861979166667 68.27701822916667  C 96.89301215277779 66.82020399305556  98.2160373263889 65.39312065972221  99.1376953125 63.99576822916667  C 100.05935329861113 62.5984157986111  100.8918185763889 60.79969618055556  101.63509114583333 58.599609375  Z " stroke-width="0" stroke-dasharray="0" stroke="rgba(255, 255, 255, 0)" fill="none" transform="matrix(1 0 0 1 1013 584 )" class="stroke" mask="url(#Clip218)" />
    <path d="M 127.81315104166667 34.1162109375  C 133.93771701388886 44.61121961805554  137 56.07248263888887  137 68.5  C 137 80.92751736111111  133.93771701388886 92.38878038194443  127.81315104166667 102.8837890625  C 121.68858506944446 113.37879774305556  113.37879774305556 121.68858506944444  102.8837890625 127.81315104166667  C 92.38878038194446 133.9377170138889  80.92751736111111 137  68.5 137  C 56.07248263888889 137  44.61121961805556 133.9377170138889  34.1162109375 127.81315104166667  C 23.621202256944446 121.68858506944444  15.311414930555557 113.37879774305556  9.186848958333334 102.8837890625  C 3.0622829861111107 92.38878038194443  0 80.92751736111111  0 68.5  C 0 56.07248263888887  3.0622829861111107 44.61121961805554  9.186848958333334 34.1162109375  C 15.311414930555557 23.621202256944443  23.621202256944446 15.311414930555543  34.1162109375 9.186848958333329  C 44.61121961805556 3.062282986111099  56.07248263888889 0  68.5 0  C 80.92751736111111 0  92.38878038194446 3.062282986111099  102.8837890625 9.186848958333329  C 113.37879774305556 15.311414930555543  121.68858506944446 23.621202256944443  127.81315104166667 34.1162109375  Z " stroke-width="0" stroke-dasharray="0" stroke="rgba(255, 255, 255, 0)" fill="none" transform="matrix(1 0 0 1 1013 584 )" class="stroke" mask="url(#Clip218)" />
  </g>
</svg>